# xmcd
#
# Track frame offsets:
#	182
#	18350
#	37697
#	60692
#	79280
#	105467
#	119480
#	137715
#	156227
#	174720
#	193312
#
# Disc length: 2763 seconds
#
# Revision: 0
# Processed by: cddbd v1.5.2PL0 Copyright (c) Steve Scherf et al.
# Submitted via: audiograbber 1.83.01
#
DISCID=920ac90b
DTITLE=Kool Moe Dee -  Kool Moe Dee - The Greatest Hits
DYEAR=1991
DGENRE=Hip-Hop
TTITLE0=Do You Know What Time It Is ?
TTITLE1=Bad Mutha
TTITLE2=Dumb Dick
TTITLE3=Turn It Up
TTITLE4=Gotta Rock
TTITLE5=The Down Beat
TTITLE6=Heart Beat
TTITLE7=At The Party
TTITLE8=Body Rock
TTITLE9=Action
TTITLE10=Christmas Rap
EXTD=
EXTT0=
EXTT1=
EXTT2=
EXTT3=
EXTT4=
EXTT5=
EXTT6=
EXTT7=
EXTT8=
EXTT9=
EXTT10=
PLAYORDER=
